<?xml version="1.0" encoding="UTF-8" standalone="no"?>
<!DOCTYPE svg PUBLIC "-//W3C//DTD SVG 1.1//EN"
 "http://www.w3.org/Graphics/SVG/1.1/DTD/svg11.dtd">
<!-- Generated by graphviz version 2.40.1 (20161225.0304)
 -->
<!-- Title: errors Pages: 1 -->
<svg width="1755pt" height="332pt"
 viewBox="0.00 0.00 1754.54 332.00" xmlns="http://www.w3.org/2000/svg" xmlns:xlink="http://www.w3.org/1999/xlink">
<g id="graph0" class="graph" transform="scale(1 1) rotate(0) translate(4 328)">
<title>errors</title>
<polygon fill="#ffffff" stroke="transparent" points="-4,4 -4,-328 1750.539,-328 1750.539,4 -4,4"/>
<!-- TopicFilterError -->
<g id="node1" class="node">
<title>TopicFilterError</title>
<polygon fill="none" stroke="#000000" points="202.7945,-180 96.7945,-180 96.7945,-144 202.7945,-144 202.7945,-180"/>
<text text-anchor="middle" x="149.7945" y="-158.3" font-family="Times,serif" font-size="14.00" fill="#000000">TopicFilterError</text>
</g>
<!-- StringEncodeError -->
<g id="node2" class="node">
<title>StringEncodeError</title>
<polygon fill="none" stroke="#000000" points="354.2945,-108 235.2945,-108 235.2945,-72 354.2945,-72 354.2945,-108"/>
<text text-anchor="middle" x="294.7945" y="-86.3" font-family="Times,serif" font-size="14.00" fill="#000000">StringEncodeError</text>
</g>
<!-- TopicFilterError&#45;&gt;StringEncodeError -->
<g id="edge1" class="edge">
<title>TopicFilterError&#45;&gt;StringEncodeError</title>
<path fill="none" stroke="#000000" d="M186.3841,-143.8314C205.5185,-134.3302 229.1174,-122.6121 249.4067,-112.5374"/>
<polygon fill="#000000" stroke="#000000" points="251.068,-115.6203 258.468,-108.038 247.9548,-109.3506 251.068,-115.6203"/>
</g>
<!-- InvalidTopicFilter -->
<g id="node3" class="node">
<title>InvalidTopicFilter</title>
<ellipse fill="none" stroke="#000000" cx="141.7945" cy="-90" rx="75.2868" ry="18"/>
<text text-anchor="middle" x="141.7945" y="-86.3" font-family="Times,serif" font-size="14.00" fill="#000000">InvalidTopicFilter</text>
</g>
<!-- TopicFilterError&#45;&gt;InvalidTopicFilter -->
<g id="edge2" class="edge">
<title>TopicFilterError&#45;&gt;InvalidTopicFilter</title>
<path fill="none" stroke="#000000" d="M147.7758,-143.8314C146.9202,-136.131 145.9028,-126.9743 144.9519,-118.4166"/>
<polygon fill="#000000" stroke="#000000" points="148.4234,-117.9656 143.8404,-108.4133 141.4662,-118.7386 148.4234,-117.9656"/>
</g>
<!-- IoError -->
<g id="node6" class="node">
<title>IoError</title>
<ellipse fill="none" stroke="#000000" cx="870.7945" cy="-18" rx="36.2938" ry="18"/>
<text text-anchor="middle" x="870.7945" y="-14.3" font-family="Times,serif" font-size="14.00" fill="#000000">IoError</text>
</g>
<!-- StringEncodeError&#45;&gt;IoError -->
<g id="edge5" class="edge">
<title>StringEncodeError&#45;&gt;IoError</title>
<path fill="none" stroke="#000000" d="M354.5366,-82.5322C470.1425,-68.0815 722.134,-36.5826 825.338,-23.6821"/>
<polygon fill="#000000" stroke="#000000" points="825.9445,-27.1336 835.4331,-22.4202 825.0761,-20.1876 825.9445,-27.1336"/>
</g>
<!-- FromUtf8Error -->
<g id="node7" class="node">
<title>FromUtf8Error</title>
<ellipse fill="none" stroke="#000000" cx="294.7945" cy="-18" rx="64.9885" ry="18"/>
<text text-anchor="middle" x="294.7945" y="-14.3" font-family="Times,serif" font-size="14.00" fill="#000000">FromUtf8Error</text>
</g>
<!-- StringEncodeError&#45;&gt;FromUtf8Error -->
<g id="edge6" class="edge">
<title>StringEncodeError&#45;&gt;FromUtf8Error</title>
<path fill="none" stroke="#000000" d="M294.7945,-71.8314C294.7945,-64.131 294.7945,-54.9743 294.7945,-46.4166"/>
<polygon fill="#000000" stroke="#000000" points="298.2946,-46.4132 294.7945,-36.4133 291.2946,-46.4133 298.2946,-46.4132"/>
</g>
<!-- TopicNameError -->
<g id="node4" class="node">
<title>TopicNameError</title>
<polygon fill="none" stroke="#000000" points="618.7945,-180 508.7945,-180 508.7945,-144 618.7945,-144 618.7945,-180"/>
<text text-anchor="middle" x="563.7945" y="-158.3" font-family="Times,serif" font-size="14.00" fill="#000000">TopicNameError</text>
</g>
<!-- TopicNameError&#45;&gt;StringEncodeError -->
<g id="edge3" class="edge">
<title>TopicNameError&#45;&gt;StringEncodeError</title>
<path fill="none" stroke="#000000" d="M508.7092,-147.256C466.8941,-136.0638 409.1242,-120.6013 364.1586,-108.5659"/>
<polygon fill="#000000" stroke="#000000" points="365.0436,-105.1796 354.4787,-105.9749 363.2337,-111.9416 365.0436,-105.1796"/>
</g>
<!-- InvalidTopicName -->
<g id="node5" class="node">
<title>InvalidTopicName</title>
<ellipse fill="none" stroke="#000000" cx="585.7945" cy="-90" rx="77.1866" ry="18"/>
<text text-anchor="middle" x="585.7945" y="-86.3" font-family="Times,serif" font-size="14.00" fill="#000000">InvalidTopicName</text>
</g>
<!-- TopicNameError&#45;&gt;InvalidTopicName -->
<g id="edge4" class="edge">
<title>TopicNameError&#45;&gt;InvalidTopicName</title>
<path fill="none" stroke="#000000" d="M569.346,-143.8314C571.7248,-136.0463 574.5583,-126.7729 577.1978,-118.1347"/>
<polygon fill="#000000" stroke="#000000" points="580.5932,-118.9996 580.1682,-108.4133 573.8987,-116.954 580.5932,-118.9996"/>
</g>
<!-- PacketTypeError -->
<g id="node8" class="node">
<title>PacketTypeError</title>
<polygon fill="none" stroke="#000000" points="1673.2945,-252 1564.2945,-252 1564.2945,-216 1673.2945,-216 1673.2945,-252"/>
<text text-anchor="middle" x="1618.7945" y="-230.3" font-family="Times,serif" font-size="14.00" fill="#000000">PacketTypeError</text>
</g>
<!-- ReservedType -->
<g id="node9" class="node">
<title>ReservedType</title>
<ellipse fill="none" stroke="#000000" cx="1684.7945" cy="-162" rx="61.99" ry="18"/>
<text text-anchor="middle" x="1684.7945" y="-158.3" font-family="Times,serif" font-size="14.00" fill="#000000">ReservedType</text>
</g>
<!-- PacketTypeError&#45;&gt;ReservedType -->
<g id="edge7" class="edge">
<title>PacketTypeError&#45;&gt;ReservedType</title>
<path fill="none" stroke="#000000" d="M1635.4491,-215.8314C1643.4446,-207.109 1653.1527,-196.5183 1661.8358,-187.0459"/>
<polygon fill="#000000" stroke="#000000" points="1664.651,-189.1543 1668.8283,-179.4177 1659.4909,-184.4242 1664.651,-189.1543"/>
</g>
<!-- InvalidFlag -->
<g id="node10" class="node">
<title>InvalidFlag</title>
<ellipse fill="none" stroke="#000000" cx="1553.7945" cy="-162" rx="51.1914" ry="18"/>
<text text-anchor="middle" x="1553.7945" y="-158.3" font-family="Times,serif" font-size="14.00" fill="#000000">InvalidFlag</text>
</g>
<!-- PacketTypeError&#45;&gt;InvalidFlag -->
<g id="edge8" class="edge">
<title>PacketTypeError&#45;&gt;InvalidFlag</title>
<path fill="none" stroke="#000000" d="M1602.3923,-215.8314C1594.5179,-207.109 1584.9569,-196.5183 1576.4054,-187.0459"/>
<polygon fill="#000000" stroke="#000000" points="1578.8178,-184.495 1569.5188,-179.4177 1573.6219,-189.1858 1578.8178,-184.495"/>
</g>
<!-- FixedHeaderError -->
<g id="node11" class="node">
<title>FixedHeaderError</title>
<polygon fill="none" stroke="#000000" points="1427.2945,-252 1312.2945,-252 1312.2945,-216 1427.2945,-216 1427.2945,-252"/>
<text text-anchor="middle" x="1369.7945" y="-230.3" font-family="Times,serif" font-size="14.00" fill="#000000">FixedHeaderError</text>
</g>
<!-- FixedHeaderError&#45;&gt;IoError -->
<g id="edge9" class="edge">
<title>FixedHeaderError&#45;&gt;IoError</title>
<path fill="none" stroke="#000000" d="M1317.6591,-215.9813C1294.6752,-206.8786 1267.922,-194.6415 1245.7945,-180 1226.3928,-167.1622 1227.529,-156.32 1207.7945,-144 1110.7784,-83.4341 980.1443,-45.0491 913.6118,-28.0991"/>
<polygon fill="#000000" stroke="#000000" points="914.4367,-24.6977 903.8855,-25.6581 912.7327,-31.4871 914.4367,-24.6977"/>
</g>
<!-- FixedHeaderError&#45;&gt;ReservedType -->
<g id="edge11" class="edge">
<title>FixedHeaderError&#45;&gt;ReservedType</title>
<path fill="none" stroke="#000000" d="M1427.5887,-221.7289C1477.1009,-211.0921 1550.2635,-195.0796 1613.7945,-180 1618.4961,-178.884 1623.3663,-177.7028 1628.2514,-176.5002"/>
<polygon fill="#000000" stroke="#000000" points="1629.3897,-179.8239 1638.2507,-174.0158 1627.7018,-173.0304 1629.3897,-179.8239"/>
</g>
<!-- FixedHeaderError&#45;&gt;InvalidFlag -->
<g id="edge12" class="edge">
<title>FixedHeaderError&#45;&gt;InvalidFlag</title>
<path fill="none" stroke="#000000" d="M1416.2255,-215.8314C1444.8908,-204.6145 1481.4523,-190.3078 1509.6774,-179.2632"/>
<polygon fill="#000000" stroke="#000000" points="1511.2497,-182.4064 1519.2868,-175.503 1508.6989,-175.8877 1511.2497,-182.4064"/>
</g>
<!-- MalformedRemainingLength -->
<g id="node12" class="node">
<title>MalformedRemainingLength</title>
<ellipse fill="none" stroke="#000000" cx="1369.7945" cy="-162" rx="115.0796" ry="18"/>
<text text-anchor="middle" x="1369.7945" y="-158.3" font-family="Times,serif" font-size="14.00" fill="#000000">MalformedRemainingLength</text>
</g>
<!-- FixedHeaderError&#45;&gt;MalformedRemainingLength -->
<g id="edge10" class="edge">
<title>FixedHeaderError&#45;&gt;MalformedRemainingLength</title>
<path fill="none" stroke="#000000" d="M1369.7945,-215.8314C1369.7945,-208.131 1369.7945,-198.9743 1369.7945,-190.4166"/>
<polygon fill="#000000" stroke="#000000" points="1373.2946,-190.4132 1369.7945,-180.4133 1366.2946,-190.4133 1373.2946,-190.4132"/>
</g>
<!-- SubscribePacketPayloadError -->
<g id="node13" class="node">
<title>SubscribePacketPayloadError</title>
<polygon fill="none" stroke="#000000" points="446.7945,-252 268.7945,-252 268.7945,-216 446.7945,-216 446.7945,-252"/>
<text text-anchor="middle" x="357.7945" y="-230.3" font-family="Times,serif" font-size="14.00" fill="#000000">SubscribePacketPayloadError</text>
</g>
<!-- SubscribePacketPayloadError&#45;&gt;TopicFilterError -->
<g id="edge16" class="edge">
<title>SubscribePacketPayloadError&#45;&gt;TopicFilterError</title>
<path fill="none" stroke="#000000" d="M305.5758,-215.9243C277.0174,-206.0387 241.465,-193.7321 211.5377,-183.3726"/>
<polygon fill="#000000" stroke="#000000" points="212.6295,-180.0469 202.0347,-180.0831 210.3396,-186.6618 212.6295,-180.0469"/>
</g>
<!-- SubscribePacketPayloadError&#45;&gt;StringEncodeError -->
<g id="edge14" class="edge">
<title>SubscribePacketPayloadError&#45;&gt;StringEncodeError</title>
<path fill="none" stroke="#000000" d="M293.8144,-215.9759C276.5513,-207.8679 259.8787,-196.3166 249.7945,-180 236.8563,-159.0656 251.7847,-133.9173 267.8281,-115.5323"/>
<polygon fill="#000000" stroke="#000000" points="270.4799,-117.8197 274.6941,-108.099 265.3378,-113.07 270.4799,-117.8197"/>
</g>
<!-- SubscribePacketPayloadError&#45;&gt;IoError -->
<g id="edge13" class="edge">
<title>SubscribePacketPayloadError&#45;&gt;IoError</title>
<path fill="none" stroke="#000000" d="M410.6487,-215.896C428.9139,-207.4229 448.188,-195.6677 461.7945,-180 495.1592,-141.5809 460.5016,-104.3312 499.7945,-72 548.5039,-31.9206 736.1296,-21.5766 824.3931,-18.9162"/>
<polygon fill="#000000" stroke="#000000" points="824.4975,-22.4147 834.3951,-18.6349 824.3007,-15.4175 824.4975,-22.4147"/>
</g>
<!-- InvalidQualityOfService -->
<g id="node14" class="node">
<title>InvalidQualityOfService</title>
<ellipse fill="none" stroke="#000000" cx="355.7945" cy="-162" rx="97.4827" ry="18"/>
<text text-anchor="middle" x="355.7945" y="-158.3" font-family="Times,serif" font-size="14.00" fill="#000000">InvalidQualityOfService</text>
</g>
<!-- SubscribePacketPayloadError&#45;&gt;InvalidQualityOfService -->
<g id="edge15" class="edge">
<title>SubscribePacketPayloadError&#45;&gt;InvalidQualityOfService</title>
<path fill="none" stroke="#000000" d="M357.2898,-215.8314C357.0759,-208.131 356.8216,-198.9743 356.5839,-190.4166"/>
<polygon fill="#000000" stroke="#000000" points="360.0824,-190.3122 356.306,-180.4133 353.0851,-190.5066 360.0824,-190.3122"/>
</g>
<!-- SubackPacketPayloadError -->
<g id="node15" class="node">
<title>SubackPacketPayloadError</title>
<polygon fill="none" stroke="#000000" points="1100.7945,-252 936.7945,-252 936.7945,-216 1100.7945,-216 1100.7945,-252"/>
<text text-anchor="middle" x="1018.7945" y="-230.3" font-family="Times,serif" font-size="14.00" fill="#000000">SubackPacketPayloadError</text>
</g>
<!-- SubackPacketPayloadError&#45;&gt;IoError -->
<g id="edge17" class="edge">
<title>SubackPacketPayloadError&#45;&gt;IoError</title>
<path fill="none" stroke="#000000" d="M997.3619,-215.8975C986.7866,-206.1093 974.4716,-193.3172 965.7945,-180 937.59,-136.7133 950.7926,-115.4205 922.7945,-72 915.6312,-60.8909 905.9672,-50.0971 896.9142,-41.117"/>
<polygon fill="#000000" stroke="#000000" points="899.1634,-38.4248 889.5216,-34.0331 894.3203,-43.479 899.1634,-38.4248"/>
</g>
<!-- InvalidSubscribeReturnCode -->
<g id="node16" class="node">
<title>InvalidSubscribeReturnCode</title>
<ellipse fill="none" stroke="#000000" cx="1086.7945" cy="-162" rx="112.3801" ry="18"/>
<text text-anchor="middle" x="1086.7945" y="-158.3" font-family="Times,serif" font-size="14.00" fill="#000000">InvalidSubscribeReturnCode</text>
</g>
<!-- SubackPacketPayloadError&#45;&gt;InvalidSubscribeReturnCode -->
<g id="edge18" class="edge">
<title>SubackPacketPayloadError&#45;&gt;InvalidSubscribeReturnCode</title>
<path fill="none" stroke="#000000" d="M1035.9538,-215.8314C1044.1498,-207.1533 1054.0924,-196.6257 1063.0038,-187.1902"/>
<polygon fill="#000000" stroke="#000000" points="1065.5546,-189.5868 1069.8763,-179.9134 1060.4655,-184.7804 1065.5546,-189.5868"/>
</g>
<!-- UnsubscribePacketPayloadError -->
<g id="node17" class="node">
<title>UnsubscribePacketPayloadError</title>
<polygon fill="none" stroke="#000000" points="212.7945,-252 20.7945,-252 20.7945,-216 212.7945,-216 212.7945,-252"/>
<text text-anchor="middle" x="116.7945" y="-230.3" font-family="Times,serif" font-size="14.00" fill="#000000">UnsubscribePacketPayloadError</text>
</g>
<!-- UnsubscribePacketPayloadError&#45;&gt;TopicFilterError -->
<g id="edge21" class="edge">
<title>UnsubscribePacketPayloadError&#45;&gt;TopicFilterError</title>
<path fill="none" stroke="#000000" d="M125.1218,-215.8314C128.7675,-207.8771 133.1254,-198.369 137.1572,-189.5723"/>
<polygon fill="#000000" stroke="#000000" points="140.3702,-190.9622 141.3551,-180.4133 134.0068,-188.0456 140.3702,-190.9622"/>
</g>
<!-- UnsubscribePacketPayloadError&#45;&gt;StringEncodeError -->
<g id="edge20" class="edge">
<title>UnsubscribePacketPayloadError&#45;&gt;StringEncodeError</title>
<path fill="none" stroke="#000000" d="M101.873,-215.7383C87.8656,-196.2488 71.3346,-165.3047 87.7945,-144 87.7945,-144 165.1902,-123.8098 225.3317,-108.1207"/>
<polygon fill="#000000" stroke="#000000" points="226.4066,-111.4575 235.1992,-105.5466 224.6396,-104.6842 226.4066,-111.4575"/>
</g>
<!-- UnsubscribePacketPayloadError&#45;&gt;IoError -->
<g id="edge19" class="edge">
<title>UnsubscribePacketPayloadError&#45;&gt;IoError</title>
<path fill="none" stroke="#000000" d="M99.5322,-215.788C70.5285,-183.0119 18.8337,-113.6345 57.7945,-72 84.1398,-43.8468 655.4791,-24.4752 824.2515,-19.3516"/>
<polygon fill="#000000" stroke="#000000" points="824.4241,-22.8481 834.3142,-19.0486 824.2134,-15.8512 824.4241,-22.8481"/>
</g>
<!-- PacketError -->
<g id="node18" class="node">
<title>PacketError</title>
<polygon fill="none" stroke="#000000" points="598.2945,-324 517.2945,-324 517.2945,-288 598.2945,-288 598.2945,-324"/>
<text text-anchor="middle" x="557.7945" y="-302.3" font-family="Times,serif" font-size="14.00" fill="#000000">PacketError</text>
</g>
<!-- PacketError&#45;&gt;TopicFilterError -->
<g id="edge30" class="edge">
<title>PacketError&#45;&gt;TopicFilterError</title>
<path fill="none" stroke="#000000" d="M517.1924,-301.5509C446.5469,-293.3331 304.2961,-274.5393 259.7945,-252 239.0402,-241.4883 239.5741,-231.0041 221.7945,-216 209.6667,-205.7654 195.8295,-195.1523 183.548,-186.0718"/>
<polygon fill="#000000" stroke="#000000" points="185.4693,-183.1406 175.3341,-180.0537 181.3321,-188.7872 185.4693,-183.1406"/>
</g>
<!-- PacketError&#45;&gt;StringEncodeError -->
<g id="edge28" class="edge">
<title>PacketError&#45;&gt;StringEncodeError</title>
<path fill="none" stroke="#000000" d="M517.1014,-305.0557C396.2286,-301.8346 45.6104,-289.3253 11.7945,-252 -30.9303,-204.8412 59.0631,-154.5507 76.7945,-144 132.7114,-110.7277 157.4607,-123.3137 225.1312,-108.0263"/>
<polygon fill="#000000" stroke="#000000" points="226.0587,-111.4033 234.9724,-105.6765 224.4329,-104.5947 226.0587,-111.4033"/>
</g>
<!-- PacketError&#45;&gt;TopicNameError -->
<g id="edge29" class="edge">
<title>PacketError&#45;&gt;TopicNameError</title>
<path fill="none" stroke="#000000" d="M558.5544,-287.7623C559.5778,-263.201 561.4092,-219.2474 562.6131,-190.3541"/>
<polygon fill="#000000" stroke="#000000" points="566.1213,-190.2267 563.0408,-180.0896 559.1274,-189.9352 566.1213,-190.2267"/>
</g>
<!-- PacketError&#45;&gt;IoError -->
<g id="edge22" class="edge">
<title>PacketError&#45;&gt;IoError</title>
<path fill="none" stroke="#000000" d="M598.4387,-302.3215C666.9402,-293.8163 804.7491,-266.354 874.7945,-180 905.4496,-142.2076 902.149,-119.7545 892.7945,-72 891.0042,-62.8604 887.6593,-53.3157 884.1085,-44.8376"/>
<polygon fill="#000000" stroke="#000000" points="887.1969,-43.1695 879.9263,-35.463 880.8042,-46.0214 887.1969,-43.1695"/>
</g>
<!-- PacketError&#45;&gt;FixedHeaderError -->
<g id="edge23" class="edge">
<title>PacketError&#45;&gt;FixedHeaderError</title>
<path fill="none" stroke="#000000" d="M598.3395,-302.4049C728.7708,-290.8395 1138.5154,-254.5075 1301.7275,-240.0355"/>
<polygon fill="#000000" stroke="#000000" points="1302.4642,-243.484 1312.1159,-239.1144 1301.8459,-236.5114 1302.4642,-243.484"/>
</g>
<!-- PacketError&#45;&gt;SubscribePacketPayloadError -->
<g id="edge26" class="edge">
<title>PacketError&#45;&gt;SubscribePacketPayloadError</title>
<path fill="none" stroke="#000000" d="M516.8389,-291.256C488.254,-280.9654 449.6409,-267.0647 417.6197,-255.5371"/>
<polygon fill="#000000" stroke="#000000" points="418.5065,-252.1365 407.9121,-252.0423 416.1355,-258.7227 418.5065,-252.1365"/>
</g>
<!-- PacketError&#45;&gt;SubackPacketPayloadError -->
<g id="edge25" class="edge">
<title>PacketError&#45;&gt;SubackPacketPayloadError</title>
<path fill="none" stroke="#000000" d="M598.3837,-300.5146C665.8517,-291.2803 805.2871,-271.7012 922.7945,-252 924.0645,-251.7871 925.3435,-251.571 926.6301,-251.352"/>
<polygon fill="#000000" stroke="#000000" points="927.3558,-254.7785 936.6123,-249.6242 926.1619,-247.8811 927.3558,-254.7785"/>
</g>
<!-- PacketError&#45;&gt;UnsubscribePacketPayloadError -->
<g id="edge27" class="edge">
<title>PacketError&#45;&gt;UnsubscribePacketPayloadError</title>
<path fill="none" stroke="#000000" d="M517.2847,-299.3976C454.8928,-289.2273 331.5209,-269.1112 226.7945,-252 225.5322,-251.7938 224.2618,-251.5862 222.9846,-251.3774"/>
<polygon fill="#000000" stroke="#000000" points="223.5119,-247.9173 213.0783,-249.7583 222.3827,-254.8256 223.5119,-247.9173"/>
</g>
<!-- VariableHeaderError -->
<g id="node19" class="node">
<title>VariableHeaderError</title>
<polygon fill="none" stroke="#000000" points="717.2945,-252 586.2945,-252 586.2945,-216 717.2945,-216 717.2945,-252"/>
<text text-anchor="middle" x="651.7945" y="-230.3" font-family="Times,serif" font-size="14.00" fill="#000000">VariableHeaderError</text>
</g>
<!-- PacketError&#45;&gt;VariableHeaderError -->
<g id="edge24" class="edge">
<title>PacketError&#45;&gt;VariableHeaderError</title>
<path fill="none" stroke="#000000" d="M581.5147,-287.8314C593.2039,-278.8779 607.4633,-267.9558 620.0754,-258.2955"/>
<polygon fill="#000000" stroke="#000000" points="622.2714,-261.0222 628.0819,-252.1628 618.0148,-255.4651 622.2714,-261.0222"/>
</g>
<!-- VariableHeaderError&#45;&gt;StringEncodeError -->
<g id="edge32" class="edge">
<title>VariableHeaderError&#45;&gt;StringEncodeError</title>
<path fill="none" stroke="#000000" d="M652.3776,-215.8687C651.98,-195.2913 647.9393,-162.2277 627.7945,-144 608.5654,-126.6009 456.556,-107.4299 364.6951,-97.2667"/>
<polygon fill="#000000" stroke="#000000" points="364.95,-93.7738 354.6279,-96.1623 364.1866,-100.732 364.95,-93.7738"/>
</g>
<!-- VariableHeaderError&#45;&gt;TopicNameError -->
<g id="edge34" class="edge">
<title>VariableHeaderError&#45;&gt;TopicNameError</title>
<path fill="none" stroke="#000000" d="M629.5884,-215.8314C618.7495,-206.9632 605.5501,-196.1637 593.8267,-186.5718"/>
<polygon fill="#000000" stroke="#000000" points="595.9495,-183.7864 585.9935,-180.1628 591.5168,-189.2041 595.9495,-183.7864"/>
</g>
<!-- VariableHeaderError&#45;&gt;IoError -->
<g id="edge31" class="edge">
<title>VariableHeaderError&#45;&gt;IoError</title>
<path fill="none" stroke="#000000" d="M717.4602,-224.3518C768.7555,-215.4017 834.202,-200.3884 851.7945,-180 883.8162,-142.8892 881.2215,-81.9008 876.1824,-46.2904"/>
<polygon fill="#000000" stroke="#000000" points="879.5916,-45.4404 874.5757,-36.1082 872.6772,-46.5315 879.5916,-45.4404"/>
</g>
<!-- InvalidReservedFlag -->
<g id="node20" class="node">
<title>InvalidReservedFlag</title>
<ellipse fill="none" stroke="#000000" cx="758.7945" cy="-162" rx="83.6854" ry="18"/>
<text text-anchor="middle" x="758.7945" y="-158.3" font-family="Times,serif" font-size="14.00" fill="#000000">InvalidReservedFlag</text>
</g>
<!-- VariableHeaderError&#45;&gt;InvalidReservedFlag -->
<g id="edge33" class="edge">
<title>VariableHeaderError&#45;&gt;InvalidReservedFlag</title>
<path fill="none" stroke="#000000" d="M678.7951,-215.8314C692.7684,-206.4288 709.9682,-194.8551 724.8345,-184.8516"/>
<polygon fill="#000000" stroke="#000000" points="726.9332,-187.658 733.2758,-179.1715 723.0253,-181.8504 726.9332,-187.658"/>
</g>
</g>
</svg>
