<?xml version="1.0" encoding="UTF-8" standalone="no"?>
<!DOCTYPE svg PUBLIC "-//W3C//DTD SVG 1.1//EN"
 "http://www.w3.org/Graphics/SVG/1.1/DTD/svg11.dtd">
<!-- Generated by graphviz version 2.40.1 (20161225.0304)
 -->
<!-- Title: errors Pages: 1 -->
<svg width="1773pt" height="332pt"
 viewBox="0.00 0.00 1773.21 332.00" xmlns="http://www.w3.org/2000/svg" xmlns:xlink="http://www.w3.org/1999/xlink">
<g id="graph0" class="graph" transform="scale(1 1) rotate(0) translate(4 328)">
<title>errors</title>
<polygon fill="#ffffff" stroke="transparent" points="-4,4 -4,-328 1769.2123,-328 1769.2123,4 -4,4"/>
<!-- TopicFilterError -->
<g id="node1" class="node">
<title>TopicFilterError</title>
<polygon fill="none" stroke="#000000" points="183.5881,-180 77.5881,-180 77.5881,-144 183.5881,-144 183.5881,-180"/>
<text text-anchor="middle" x="130.5881" y="-158.3" font-family="Times,serif" font-size="14.00" fill="#000000">TopicFilterError</text>
</g>
<!-- StringEncodeError -->
<g id="node2" class="node">
<title>StringEncodeError</title>
<polygon fill="none" stroke="#000000" points="433.0881,-108 314.0881,-108 314.0881,-72 433.0881,-72 433.0881,-108"/>
<text text-anchor="middle" x="373.5881" y="-86.3" font-family="Times,serif" font-size="14.00" fill="#000000">StringEncodeError</text>
</g>
<!-- TopicFilterError&#45;&gt;StringEncodeError -->
<g id="edge1" class="edge">
<title>TopicFilterError&#45;&gt;StringEncodeError</title>
<path fill="none" stroke="#000000" d="M183.6152,-146.2883C218.8683,-135.8429 265.5404,-122.0141 303.8012,-110.6776"/>
<polygon fill="#000000" stroke="#000000" points="305.249,-113.8991 313.8427,-107.7023 303.2604,-107.1875 305.249,-113.8991"/>
</g>
<!-- InvalidTopicFilter -->
<g id="node3" class="node">
<title>InvalidTopicFilter</title>
<ellipse fill="none" stroke="#000000" cx="130.5881" cy="-90" rx="75.2868" ry="18"/>
<text text-anchor="middle" x="130.5881" y="-86.3" font-family="Times,serif" font-size="14.00" fill="#000000">InvalidTopicFilter</text>
</g>
<!-- TopicFilterError&#45;&gt;InvalidTopicFilter -->
<g id="edge2" class="edge">
<title>TopicFilterError&#45;&gt;InvalidTopicFilter</title>
<path fill="none" stroke="#000000" d="M130.5881,-143.8314C130.5881,-136.131 130.5881,-126.9743 130.5881,-118.4166"/>
<polygon fill="#000000" stroke="#000000" points="134.0882,-118.4132 130.5881,-108.4133 127.0882,-118.4133 134.0882,-118.4132"/>
</g>
<!-- IoError -->
<g id="node6" class="node">
<title>IoError</title>
<ellipse fill="none" stroke="#000000" cx="851.5881" cy="-18" rx="36.2938" ry="18"/>
<text text-anchor="middle" x="851.5881" y="-14.3" font-family="Times,serif" font-size="14.00" fill="#000000">IoError</text>
</g>
<!-- StringEncodeError&#45;&gt;IoError -->
<g id="edge5" class="edge">
<title>StringEncodeError&#45;&gt;IoError</title>
<path fill="none" stroke="#000000" d="M433.2451,-74.9153C438.0844,-73.8668 442.9101,-72.879 447.5881,-72 576.4456,-47.7866 730.4093,-30.3355 805.6359,-22.5421"/>
<polygon fill="#000000" stroke="#000000" points="806.1272,-26.0101 815.7173,-21.5068 805.412,-19.0467 806.1272,-26.0101"/>
</g>
<!-- FromUtf8Error -->
<g id="node7" class="node">
<title>FromUtf8Error</title>
<ellipse fill="none" stroke="#000000" cx="373.5881" cy="-18" rx="64.9885" ry="18"/>
<text text-anchor="middle" x="373.5881" y="-14.3" font-family="Times,serif" font-size="14.00" fill="#000000">FromUtf8Error</text>
</g>
<!-- StringEncodeError&#45;&gt;FromUtf8Error -->
<g id="edge6" class="edge">
<title>StringEncodeError&#45;&gt;FromUtf8Error</title>
<path fill="none" stroke="#000000" d="M373.5881,-71.8314C373.5881,-64.131 373.5881,-54.9743 373.5881,-46.4166"/>
<polygon fill="#000000" stroke="#000000" points="377.0882,-46.4132 373.5881,-36.4133 370.0882,-46.4133 377.0882,-46.4132"/>
</g>
<!-- TopicNameError -->
<g id="node4" class="node">
<title>TopicNameError</title>
<polygon fill="none" stroke="#000000" points="599.5881,-180 489.5881,-180 489.5881,-144 599.5881,-144 599.5881,-180"/>
<text text-anchor="middle" x="544.5881" y="-158.3" font-family="Times,serif" font-size="14.00" fill="#000000">TopicNameError</text>
</g>
<!-- TopicNameError&#45;&gt;StringEncodeError -->
<g id="edge3" class="edge">
<title>TopicNameError&#45;&gt;StringEncodeError</title>
<path fill="none" stroke="#000000" d="M501.4375,-143.8314C478.4657,-134.159 450.0371,-122.1891 425.8249,-111.9944"/>
<polygon fill="#000000" stroke="#000000" points="427.0029,-108.6929 416.4283,-108.038 424.2864,-115.1443 427.0029,-108.6929"/>
</g>
<!-- InvalidTopicName -->
<g id="node5" class="node">
<title>InvalidTopicName</title>
<ellipse fill="none" stroke="#000000" cx="566.5881" cy="-90" rx="77.1866" ry="18"/>
<text text-anchor="middle" x="566.5881" y="-86.3" font-family="Times,serif" font-size="14.00" fill="#000000">InvalidTopicName</text>
</g>
<!-- TopicNameError&#45;&gt;InvalidTopicName -->
<g id="edge4" class="edge">
<title>TopicNameError&#45;&gt;InvalidTopicName</title>
<path fill="none" stroke="#000000" d="M550.1396,-143.8314C552.5184,-136.0463 555.3519,-126.7729 557.9913,-118.1347"/>
<polygon fill="#000000" stroke="#000000" points="561.3868,-118.9996 560.9618,-108.4133 554.6923,-116.954 561.3868,-118.9996"/>
</g>
<!-- PacketTypeError -->
<g id="node8" class="node">
<title>PacketTypeError</title>
<polygon fill="none" stroke="#000000" points="1065.0881,-180 956.0881,-180 956.0881,-144 1065.0881,-144 1065.0881,-180"/>
<text text-anchor="middle" x="1010.5881" y="-158.3" font-family="Times,serif" font-size="14.00" fill="#000000">PacketTypeError</text>
</g>
<!-- ReservedType -->
<g id="node9" class="node">
<title>ReservedType</title>
<ellipse fill="none" stroke="#000000" cx="979.5881" cy="-90" rx="61.99" ry="18"/>
<text text-anchor="middle" x="979.5881" y="-86.3" font-family="Times,serif" font-size="14.00" fill="#000000">ReservedType</text>
</g>
<!-- PacketTypeError&#45;&gt;ReservedType -->
<g id="edge7" class="edge">
<title>PacketTypeError&#45;&gt;ReservedType</title>
<path fill="none" stroke="#000000" d="M1002.7655,-143.8314C999.288,-135.7547 995.1208,-126.0761 991.2849,-117.1668"/>
<polygon fill="#000000" stroke="#000000" points="994.4701,-115.7141 987.3008,-107.9134 988.0407,-118.4824 994.4701,-115.7141"/>
</g>
<!-- UndefinedType -->
<g id="node10" class="node">
<title>UndefinedType</title>
<ellipse fill="none" stroke="#000000" cx="1124.5881" cy="-90" rx="65.7887" ry="18"/>
<text text-anchor="middle" x="1124.5881" y="-86.3" font-family="Times,serif" font-size="14.00" fill="#000000">UndefinedType</text>
</g>
<!-- PacketTypeError&#45;&gt;UndefinedType -->
<g id="edge8" class="edge">
<title>PacketTypeError&#45;&gt;UndefinedType</title>
<path fill="none" stroke="#000000" d="M1039.3551,-143.8314C1054.6042,-134.2003 1073.4601,-122.2913 1089.5565,-112.1252"/>
<polygon fill="#000000" stroke="#000000" points="1091.5886,-114.9814 1098.1745,-106.6822 1087.8506,-109.063 1091.5886,-114.9814"/>
</g>
<!-- InvalidFlag -->
<g id="node11" class="node">
<title>InvalidFlag</title>
<ellipse fill="none" stroke="#000000" cx="1259.5881" cy="-90" rx="51.1914" ry="18"/>
<text text-anchor="middle" x="1259.5881" y="-86.3" font-family="Times,serif" font-size="14.00" fill="#000000">InvalidFlag</text>
</g>
<!-- PacketTypeError&#45;&gt;InvalidFlag -->
<g id="edge9" class="edge">
<title>PacketTypeError&#45;&gt;InvalidFlag</title>
<path fill="none" stroke="#000000" d="M1065.2294,-146.5935C1103.0026,-135.8929 1154.3929,-121.2351 1199.5881,-108 1203.1921,-106.9446 1206.9155,-105.8464 1210.6606,-104.7362"/>
<polygon fill="#000000" stroke="#000000" points="1211.9714,-107.9978 1220.5572,-101.7903 1209.9743,-101.2887 1211.9714,-107.9978"/>
</g>
<!-- FixedHeaderError -->
<g id="node12" class="node">
<title>FixedHeaderError</title>
<polygon fill="none" stroke="#000000" points="1026.0881,-252 911.0881,-252 911.0881,-216 1026.0881,-216 1026.0881,-252"/>
<text text-anchor="middle" x="968.5881" y="-230.3" font-family="Times,serif" font-size="14.00" fill="#000000">FixedHeaderError</text>
</g>
<!-- FixedHeaderError&#45;&gt;IoError -->
<g id="edge10" class="edge">
<title>FixedHeaderError&#45;&gt;IoError</title>
<path fill="none" stroke="#000000" d="M958.814,-215.9555C938.1936,-177.8872 890.1563,-89.2028 866.0001,-44.6068"/>
<polygon fill="#000000" stroke="#000000" points="868.9291,-42.6655 861.0887,-35.5396 862.774,-45.9995 868.9291,-42.6655"/>
</g>
<!-- FixedHeaderError&#45;&gt;PacketTypeError -->
<g id="edge14" class="edge">
<title>FixedHeaderError&#45;&gt;PacketTypeError</title>
<path fill="none" stroke="#000000" d="M979.1864,-215.8314C983.8758,-207.7925 989.4909,-198.1666 994.6679,-189.2918"/>
<polygon fill="#000000" stroke="#000000" points="997.8315,-190.8146 999.847,-180.4133 991.785,-187.2875 997.8315,-190.8146"/>
</g>
<!-- FixedHeaderError&#45;&gt;ReservedType -->
<g id="edge13" class="edge">
<title>FixedHeaderError&#45;&gt;ReservedType</title>
<path fill="none" stroke="#000000" d="M959.0811,-215.9685C950.7025,-197.7253 940.8031,-168.7587 947.5881,-144 950.2108,-134.4294 955.0167,-124.8348 960.1207,-116.4444"/>
<polygon fill="#000000" stroke="#000000" points="963.1773,-118.1638 965.6869,-107.8705 957.3061,-114.3522 963.1773,-118.1638"/>
</g>
<!-- MalformedRemainingLength -->
<g id="node13" class="node">
<title>MalformedRemainingLength</title>
<ellipse fill="none" stroke="#000000" cx="1198.5881" cy="-162" rx="115.0796" ry="18"/>
<text text-anchor="middle" x="1198.5881" y="-158.3" font-family="Times,serif" font-size="14.00" fill="#000000">MalformedRemainingLength</text>
</g>
<!-- FixedHeaderError&#45;&gt;MalformedRemainingLength -->
<g id="edge11" class="edge">
<title>FixedHeaderError&#45;&gt;MalformedRemainingLength</title>
<path fill="none" stroke="#000000" d="M1026.3299,-215.9243C1060.1202,-205.3465 1102.765,-191.9968 1137.1696,-181.2266"/>
<polygon fill="#000000" stroke="#000000" points="1138.6031,-184.4455 1147.1008,-178.1178 1136.5118,-177.7651 1138.6031,-184.4455"/>
</g>
<!-- Unrecognized -->
<g id="node14" class="node">
<title>Unrecognized</title>
<ellipse fill="none" stroke="#000000" cx="1391.5881" cy="-162" rx="59.5901" ry="18"/>
<text text-anchor="middle" x="1391.5881" y="-158.3" font-family="Times,serif" font-size="14.00" fill="#000000">Unrecognized</text>
</g>
<!-- FixedHeaderError&#45;&gt;Unrecognized -->
<g id="edge12" class="edge">
<title>FixedHeaderError&#45;&gt;Unrecognized</title>
<path fill="none" stroke="#000000" d="M1026.2421,-227.075C1096.5753,-218.1977 1218.9242,-201.3678 1322.5881,-180 1327.5385,-178.9796 1332.665,-177.8268 1337.7854,-176.6098"/>
<polygon fill="#000000" stroke="#000000" points="1338.6985,-179.9897 1347.5769,-174.2084 1337.031,-173.1912 1338.6985,-179.9897"/>
</g>
<!-- SubscribePacketPayloadError -->
<g id="node15" class="node">
<title>SubscribePacketPayloadError</title>
<polygon fill="none" stroke="#000000" points="512.5881,-252 334.5881,-252 334.5881,-216 512.5881,-216 512.5881,-252"/>
<text text-anchor="middle" x="423.5881" y="-230.3" font-family="Times,serif" font-size="14.00" fill="#000000">SubscribePacketPayloadError</text>
</g>
<!-- SubscribePacketPayloadError&#45;&gt;TopicFilterError -->
<g id="edge18" class="edge">
<title>SubscribePacketPayloadError&#45;&gt;TopicFilterError</title>
<path fill="none" stroke="#000000" d="M341.8126,-215.9922C300.0179,-206.5258 248.1566,-194.3787 193.5088,-180.1808"/>
<polygon fill="#000000" stroke="#000000" points="194.1968,-176.7431 183.6368,-177.6013 192.4271,-183.5157 194.1968,-176.7431"/>
</g>
<!-- SubscribePacketPayloadError&#45;&gt;StringEncodeError -->
<g id="edge16" class="edge">
<title>SubscribePacketPayloadError&#45;&gt;StringEncodeError</title>
<path fill="none" stroke="#000000" d="M421.468,-215.9405C418.9072,-197.4249 413.7558,-168.0207 404.5881,-144 401.078,-134.8032 396.1426,-125.3165 391.24,-116.9099"/>
<polygon fill="#000000" stroke="#000000" points="394.1816,-115.0106 386.0021,-108.2765 388.1969,-118.6416 394.1816,-115.0106"/>
</g>
<!-- SubscribePacketPayloadError&#45;&gt;IoError -->
<g id="edge15" class="edge">
<title>SubscribePacketPayloadError&#45;&gt;IoError</title>
<path fill="none" stroke="#000000" d="M424.1888,-215.7737C426.3717,-181.6914 436.2685,-108.4673 480.5881,-72 529.2975,-31.9206 716.9231,-21.5766 805.1867,-18.9162"/>
<polygon fill="#000000" stroke="#000000" points="805.291,-22.4147 815.1887,-18.6349 805.0942,-15.4175 805.291,-22.4147"/>
</g>
<!-- InvalidQualityOfService -->
<g id="node16" class="node">
<title>InvalidQualityOfService</title>
<ellipse fill="none" stroke="#000000" cx="298.5881" cy="-162" rx="97.4827" ry="18"/>
<text text-anchor="middle" x="298.5881" y="-158.3" font-family="Times,serif" font-size="14.00" fill="#000000">InvalidQualityOfService</text>
</g>
<!-- SubscribePacketPayloadError&#45;&gt;InvalidQualityOfService -->
<g id="edge17" class="edge">
<title>SubscribePacketPayloadError&#45;&gt;InvalidQualityOfService</title>
<path fill="none" stroke="#000000" d="M392.0453,-215.8314C375.4163,-206.253 354.8757,-194.4217 337.2901,-184.2923"/>
<polygon fill="#000000" stroke="#000000" points="338.8119,-181.1299 328.3996,-179.1715 335.318,-187.1956 338.8119,-181.1299"/>
</g>
<!-- SubackPacketPayloadError -->
<g id="node17" class="node">
<title>SubackPacketPayloadError</title>
<polygon fill="none" stroke="#000000" points="1561.5881,-252 1397.5881,-252 1397.5881,-216 1561.5881,-216 1561.5881,-252"/>
<text text-anchor="middle" x="1479.5881" y="-230.3" font-family="Times,serif" font-size="14.00" fill="#000000">SubackPacketPayloadError</text>
</g>
<!-- SubackPacketPayloadError&#45;&gt;IoError -->
<g id="edge19" class="edge">
<title>SubackPacketPayloadError&#45;&gt;IoError</title>
<path fill="none" stroke="#000000" d="M1480.1641,-215.8995C1479.868,-196.2625 1476.6049,-164.9226 1460.5881,-144 1417.8164,-88.1279 1386.9432,-92.3566 1319.5881,-72 1241.3414,-48.3517 999.9682,-28.7115 897.9106,-21.2375"/>
<polygon fill="#000000" stroke="#000000" points="898.1279,-17.7442 887.9007,-20.5109 897.621,-24.7258 898.1279,-17.7442"/>
</g>
<!-- InvalidSubscribeReturnCode -->
<g id="node18" class="node">
<title>InvalidSubscribeReturnCode</title>
<ellipse fill="none" stroke="#000000" cx="1619.5881" cy="-162" rx="112.3801" ry="18"/>
<text text-anchor="middle" x="1619.5881" y="-158.3" font-family="Times,serif" font-size="14.00" fill="#000000">InvalidSubscribeReturnCode</text>
</g>
<!-- SubackPacketPayloadError&#45;&gt;InvalidSubscribeReturnCode -->
<g id="edge20" class="edge">
<title>SubackPacketPayloadError&#45;&gt;InvalidSubscribeReturnCode</title>
<path fill="none" stroke="#000000" d="M1514.916,-215.8314C1533.6569,-206.1932 1556.8338,-194.2736 1576.6109,-184.1026"/>
<polygon fill="#000000" stroke="#000000" points="1578.4281,-187.1038 1585.7203,-179.4177 1575.2267,-180.8787 1578.4281,-187.1038"/>
</g>
<!-- UnsubscribePacketPayloadError -->
<g id="node19" class="node">
<title>UnsubscribePacketPayloadError</title>
<polygon fill="none" stroke="#000000" points="210.5881,-252 18.5881,-252 18.5881,-216 210.5881,-216 210.5881,-252"/>
<text text-anchor="middle" x="114.5881" y="-230.3" font-family="Times,serif" font-size="14.00" fill="#000000">UnsubscribePacketPayloadError</text>
</g>
<!-- UnsubscribePacketPayloadError&#45;&gt;TopicFilterError -->
<g id="edge23" class="edge">
<title>UnsubscribePacketPayloadError&#45;&gt;TopicFilterError</title>
<path fill="none" stroke="#000000" d="M118.6255,-215.8314C120.3367,-208.131 122.3715,-198.9743 124.2733,-190.4166"/>
<polygon fill="#000000" stroke="#000000" points="127.7435,-190.9344 126.4962,-180.4133 120.9102,-189.4159 127.7435,-190.9344"/>
</g>
<!-- UnsubscribePacketPayloadError&#45;&gt;StringEncodeError -->
<g id="edge22" class="edge">
<title>UnsubscribePacketPayloadError&#45;&gt;StringEncodeError</title>
<path fill="none" stroke="#000000" d="M93.5104,-215.6745C73.8844,-196.4113 50.2103,-165.9173 68.5881,-144 83.5911,-126.1074 218.6357,-107.6364 303.9253,-97.6084"/>
<polygon fill="#000000" stroke="#000000" points="304.5401,-101.0606 314.0684,-96.4279 303.7308,-94.1075 304.5401,-101.0606"/>
</g>
<!-- UnsubscribePacketPayloadError&#45;&gt;IoError -->
<g id="edge21" class="edge">
<title>UnsubscribePacketPayloadError&#45;&gt;IoError</title>
<path fill="none" stroke="#000000" d="M88.6687,-215.7851C77.3087,-206.4119 64.9182,-194.0109 57.5881,-180 35.2219,-137.2489 13.6328,-107.24 46.5881,-72 59.6417,-58.0413 635.816,-28.6212 805.2149,-20.2597"/>
<polygon fill="#000000" stroke="#000000" points="805.4955,-23.7503 815.3112,-19.7626 805.1512,-16.7587 805.4955,-23.7503"/>
</g>
<!-- PacketError -->
<g id="node20" class="node">
<title>PacketError</title>
<polygon fill="none" stroke="#000000" points="585.0881,-324 504.0881,-324 504.0881,-288 585.0881,-288 585.0881,-324"/>
<text text-anchor="middle" x="544.5881" y="-302.3" font-family="Times,serif" font-size="14.00" fill="#000000">PacketError</text>
</g>
<!-- PacketError&#45;&gt;TopicFilterError -->
<g id="edge32" class="edge">
<title>PacketError&#45;&gt;TopicFilterError</title>
<path fill="none" stroke="#000000" d="M503.9542,-298.401C459.4717,-289.5267 386.3805,-273.305 325.5881,-252 271.6746,-233.1057 212.4457,-204.5895 173.5761,-184.7369"/>
<polygon fill="#000000" stroke="#000000" points="175.1273,-181.5989 164.6335,-180.1387 171.9263,-187.8242 175.1273,-181.5989"/>
</g>
<!-- PacketError&#45;&gt;StringEncodeError -->
<g id="edge30" class="edge">
<title>PacketError&#45;&gt;StringEncodeError</title>
<path fill="none" stroke="#000000" d="M503.8682,-304.9669C384.6439,-301.5259 42.6143,-288.5275 9.5881,-252 -24.9738,-213.7741 47.387,-150.6256 57.5881,-144 77.9324,-130.7864 217.1328,-110.5246 303.8612,-98.9436"/>
<polygon fill="#000000" stroke="#000000" points="304.4533,-102.3958 313.9055,-97.6098 303.5317,-95.4567 304.4533,-102.3958"/>
</g>
<!-- PacketError&#45;&gt;TopicNameError -->
<g id="edge31" class="edge">
<title>PacketError&#45;&gt;TopicNameError</title>
<path fill="none" stroke="#000000" d="M544.5881,-287.7623C544.5881,-263.201 544.5881,-219.2474 544.5881,-190.3541"/>
<polygon fill="#000000" stroke="#000000" points="548.0882,-190.0896 544.5881,-180.0896 541.0882,-190.0897 548.0882,-190.0896"/>
</g>
<!-- PacketError&#45;&gt;IoError -->
<g id="edge24" class="edge">
<title>PacketError&#45;&gt;IoError</title>
<path fill="none" stroke="#000000" d="M585.2602,-305.738C751.3175,-304.3795 1378.2005,-296.3576 1570.5881,-252 1650.5431,-233.5653 1695.2727,-248.4044 1740.5881,-180 1802.7455,-86.1721 1766.5017,-129.7416 1385.5881,-72 1206.1725,-44.8029 990.7033,-27.735 897.8612,-21.1242"/>
<polygon fill="#000000" stroke="#000000" points="897.9039,-17.6186 887.6824,-20.4065 897.4115,-24.6012 897.9039,-17.6186"/>
</g>
<!-- PacketError&#45;&gt;FixedHeaderError -->
<g id="edge25" class="edge">
<title>PacketError&#45;&gt;FixedHeaderError</title>
<path fill="none" stroke="#000000" d="M585.243,-299.0963C658.1899,-286.7091 811.978,-260.5942 901.0043,-245.4765"/>
<polygon fill="#000000" stroke="#000000" points="901.7276,-248.9038 911.0005,-243.779 900.5557,-242.0026 901.7276,-248.9038"/>
</g>
<!-- PacketError&#45;&gt;SubscribePacketPayloadError -->
<g id="edge28" class="edge">
<title>PacketError&#45;&gt;SubscribePacketPayloadError</title>
<path fill="none" stroke="#000000" d="M514.0547,-287.8314C498.578,-278.6221 479.6012,-267.3301 463.0317,-257.4706"/>
<polygon fill="#000000" stroke="#000000" points="464.4952,-254.2687 454.1117,-252.1628 460.9156,-260.2843 464.4952,-254.2687"/>
</g>
<!-- PacketError&#45;&gt;SubackPacketPayloadError -->
<g id="edge27" class="edge">
<title>PacketError&#45;&gt;SubackPacketPayloadError</title>
<path fill="none" stroke="#000000" d="M585.3651,-302.86C725.284,-292.0854 1188.1894,-256.4393 1387.2577,-241.1099"/>
<polygon fill="#000000" stroke="#000000" points="1387.6972,-244.5865 1397.399,-240.329 1387.1597,-237.6072 1387.6972,-244.5865"/>
</g>
<!-- PacketError&#45;&gt;UnsubscribePacketPayloadError -->
<g id="edge29" class="edge">
<title>PacketError&#45;&gt;UnsubscribePacketPayloadError</title>
<path fill="none" stroke="#000000" d="M503.747,-299.1615C439.3896,-288.3854 312.3014,-267.1055 220.8456,-251.792"/>
<polygon fill="#000000" stroke="#000000" points="221.1564,-248.2954 210.7157,-250.0958 220.0004,-255.1992 221.1564,-248.2954"/>
</g>
<!-- VariableHeaderError -->
<g id="node21" class="node">
<title>VariableHeaderError</title>
<polygon fill="none" stroke="#000000" points="767.0881,-252 636.0881,-252 636.0881,-216 767.0881,-216 767.0881,-252"/>
<text text-anchor="middle" x="701.5881" y="-230.3" font-family="Times,serif" font-size="14.00" fill="#000000">VariableHeaderError</text>
</g>
<!-- PacketError&#45;&gt;VariableHeaderError -->
<g id="edge26" class="edge">
<title>PacketError&#45;&gt;VariableHeaderError</title>
<path fill="none" stroke="#000000" d="M584.2058,-287.8314C605.1103,-278.2446 630.9364,-266.4008 653.0369,-256.2655"/>
<polygon fill="#000000" stroke="#000000" points="654.6245,-259.388 662.2552,-252.038 651.7065,-253.0252 654.6245,-259.388"/>
</g>
<!-- VariableHeaderError&#45;&gt;StringEncodeError -->
<g id="edge34" class="edge">
<title>VariableHeaderError&#45;&gt;StringEncodeError</title>
<path fill="none" stroke="#000000" d="M753.7043,-215.8022C769.6909,-207.4867 785.4592,-195.8568 794.5881,-180 802.571,-166.1337 805.238,-155.9407 794.5881,-144 747.8384,-91.5843 550.1318,-117.8291 480.5881,-108 468.446,-106.2839 455.5603,-104.2766 443.0942,-102.2372"/>
<polygon fill="#000000" stroke="#000000" points="443.6464,-98.7811 433.2088,-100.5998 442.5024,-105.687 443.6464,-98.7811"/>
</g>
<!-- VariableHeaderError&#45;&gt;TopicNameError -->
<g id="edge36" class="edge">
<title>VariableHeaderError&#45;&gt;TopicNameError</title>
<path fill="none" stroke="#000000" d="M661.9703,-215.8314C641.0658,-206.2446 615.2397,-194.4008 593.1392,-184.2655"/>
<polygon fill="#000000" stroke="#000000" points="594.4697,-181.0252 583.9209,-180.038 591.5516,-187.388 594.4697,-181.0252"/>
</g>
<!-- VariableHeaderError&#45;&gt;IoError -->
<g id="edge33" class="edge">
<title>VariableHeaderError&#45;&gt;IoError</title>
<path fill="none" stroke="#000000" d="M761.1937,-215.9789C779.7117,-207.713 798.6402,-196.0686 811.5881,-180 842.8861,-141.1585 850.1776,-81.2782 851.5972,-46.2328"/>
<polygon fill="#000000" stroke="#000000" points="855.0967,-46.296 851.8694,-36.2047 848.0993,-46.1061 855.0967,-46.296"/>
</g>
<!-- InvalidReservedFlag -->
<g id="node22" class="node">
<title>InvalidReservedFlag</title>
<ellipse fill="none" stroke="#000000" cx="701.5881" cy="-162" rx="83.6854" ry="18"/>
<text text-anchor="middle" x="701.5881" y="-158.3" font-family="Times,serif" font-size="14.00" fill="#000000">InvalidReservedFlag</text>
</g>
<!-- VariableHeaderError&#45;&gt;InvalidReservedFlag -->
<g id="edge35" class="edge">
<title>VariableHeaderError&#45;&gt;InvalidReservedFlag</title>
<path fill="none" stroke="#000000" d="M701.5881,-215.8314C701.5881,-208.131 701.5881,-198.9743 701.5881,-190.4166"/>
<polygon fill="#000000" stroke="#000000" points="705.0882,-190.4132 701.5881,-180.4133 698.0882,-190.4133 705.0882,-190.4132"/>
</g>
</g>
</svg>
