<?xml version="1.0" encoding="UTF-8" standalone="no"?>
<!DOCTYPE svg PUBLIC "-//W3C//DTD SVG 1.1//EN"
 "http://www.w3.org/Graphics/SVG/1.1/DTD/svg11.dtd">
<!-- Generated by graphviz version 2.40.1 (20161225.0304)
 -->
<!-- Title: errors Pages: 1 -->
<svg width="1665pt" height="332pt"
 viewBox="0.00 0.00 1665.16 332.00" xmlns="http://www.w3.org/2000/svg" xmlns:xlink="http://www.w3.org/1999/xlink">
<g id="graph0" class="graph" transform="scale(1 1) rotate(0) translate(4 328)">
<title>errors</title>
<polygon fill="#ffffff" stroke="transparent" points="-4,4 -4,-328 1661.164,-328 1661.164,4 -4,4"/>
<!-- TopicFilterError -->
<g id="node1" class="node">
<title>TopicFilterError</title>
<polygon fill="none" stroke="#000000" points="218,-180 112,-180 112,-144 218,-144 218,-180"/>
<text text-anchor="middle" x="165" y="-158.3" font-family="Times,serif" font-size="14.00" fill="#000000">TopicFilterError</text>
</g>
<!-- StringEncodeError -->
<g id="node2" class="node">
<title>StringEncodeError</title>
<polygon fill="none" stroke="#000000" points="467.5,-108 348.5,-108 348.5,-72 467.5,-72 467.5,-108"/>
<text text-anchor="middle" x="408" y="-86.3" font-family="Times,serif" font-size="14.00" fill="#000000">StringEncodeError</text>
</g>
<!-- TopicFilterError&#45;&gt;StringEncodeError -->
<g id="edge1" class="edge">
<title>TopicFilterError&#45;&gt;StringEncodeError</title>
<path fill="none" stroke="#000000" d="M218.0271,-146.2883C253.2802,-135.8429 299.9523,-122.0141 338.2131,-110.6776"/>
<polygon fill="#000000" stroke="#000000" points="339.661,-113.8991 348.2546,-107.7023 337.6723,-107.1875 339.661,-113.8991"/>
</g>
<!-- InvalidTopicFilter -->
<g id="node3" class="node">
<title>InvalidTopicFilter</title>
<ellipse fill="none" stroke="#000000" cx="165" cy="-90" rx="75.2868" ry="18"/>
<text text-anchor="middle" x="165" y="-86.3" font-family="Times,serif" font-size="14.00" fill="#000000">InvalidTopicFilter</text>
</g>
<!-- TopicFilterError&#45;&gt;InvalidTopicFilter -->
<g id="edge2" class="edge">
<title>TopicFilterError&#45;&gt;InvalidTopicFilter</title>
<path fill="none" stroke="#000000" d="M165,-143.8314C165,-136.131 165,-126.9743 165,-118.4166"/>
<polygon fill="#000000" stroke="#000000" points="168.5001,-118.4132 165,-108.4133 161.5001,-118.4133 168.5001,-118.4132"/>
</g>
<!-- IoError -->
<g id="node6" class="node">
<title>IoError</title>
<ellipse fill="none" stroke="#000000" cx="738" cy="-18" rx="36.2938" ry="18"/>
<text text-anchor="middle" x="738" y="-14.3" font-family="Times,serif" font-size="14.00" fill="#000000">IoError</text>
</g>
<!-- StringEncodeError&#45;&gt;IoError -->
<g id="edge5" class="edge">
<title>StringEncodeError&#45;&gt;IoError</title>
<path fill="none" stroke="#000000" d="M467.7373,-75.3026C472.5586,-74.1672 477.3583,-73.0538 482,-72 556.178,-55.1591 642.8548,-37.2438 693.9363,-26.8662"/>
<polygon fill="#000000" stroke="#000000" points="694.8663,-30.249 703.9713,-24.8315 693.4752,-23.3886 694.8663,-30.249"/>
</g>
<!-- FromUtf8Error -->
<g id="node7" class="node">
<title>FromUtf8Error</title>
<ellipse fill="none" stroke="#000000" cx="408" cy="-18" rx="64.9885" ry="18"/>
<text text-anchor="middle" x="408" y="-14.3" font-family="Times,serif" font-size="14.00" fill="#000000">FromUtf8Error</text>
</g>
<!-- StringEncodeError&#45;&gt;FromUtf8Error -->
<g id="edge6" class="edge">
<title>StringEncodeError&#45;&gt;FromUtf8Error</title>
<path fill="none" stroke="#000000" d="M408,-71.8314C408,-64.131 408,-54.9743 408,-46.4166"/>
<polygon fill="#000000" stroke="#000000" points="411.5001,-46.4132 408,-36.4133 404.5001,-46.4133 411.5001,-46.4132"/>
</g>
<!-- TopicNameError -->
<g id="node4" class="node">
<title>TopicNameError</title>
<polygon fill="none" stroke="#000000" points="672,-180 562,-180 562,-144 672,-144 672,-180"/>
<text text-anchor="middle" x="617" y="-158.3" font-family="Times,serif" font-size="14.00" fill="#000000">TopicNameError</text>
</g>
<!-- TopicNameError&#45;&gt;StringEncodeError -->
<g id="edge3" class="edge">
<title>TopicNameError&#45;&gt;StringEncodeError</title>
<path fill="none" stroke="#000000" d="M564.5302,-143.9243C535.8345,-134.0387 500.1112,-121.7321 470.04,-111.3726"/>
<polygon fill="#000000" stroke="#000000" points="471.0861,-108.0312 460.4913,-108.0831 468.806,-114.6495 471.0861,-108.0312"/>
</g>
<!-- InvalidTopicName -->
<g id="node5" class="node">
<title>InvalidTopicName</title>
<ellipse fill="none" stroke="#000000" cx="617" cy="-90" rx="77.1866" ry="18"/>
<text text-anchor="middle" x="617" y="-86.3" font-family="Times,serif" font-size="14.00" fill="#000000">InvalidTopicName</text>
</g>
<!-- TopicNameError&#45;&gt;InvalidTopicName -->
<g id="edge4" class="edge">
<title>TopicNameError&#45;&gt;InvalidTopicName</title>
<path fill="none" stroke="#000000" d="M617,-143.8314C617,-136.131 617,-126.9743 617,-118.4166"/>
<polygon fill="#000000" stroke="#000000" points="620.5001,-118.4132 617,-108.4133 613.5001,-118.4133 620.5001,-118.4132"/>
</g>
<!-- PacketTypeError -->
<g id="node8" class="node">
<title>PacketTypeError</title>
<polygon fill="none" stroke="#000000" points="1060.5,-180 951.5,-180 951.5,-144 1060.5,-144 1060.5,-180"/>
<text text-anchor="middle" x="1006" y="-158.3" font-family="Times,serif" font-size="14.00" fill="#000000">PacketTypeError</text>
</g>
<!-- ReservedType -->
<g id="node9" class="node">
<title>ReservedType</title>
<ellipse fill="none" stroke="#000000" cx="1211" cy="-90" rx="61.99" ry="18"/>
<text text-anchor="middle" x="1211" y="-86.3" font-family="Times,serif" font-size="14.00" fill="#000000">ReservedType</text>
</g>
<!-- PacketTypeError&#45;&gt;ReservedType -->
<g id="edge7" class="edge">
<title>PacketTypeError&#45;&gt;ReservedType</title>
<path fill="none" stroke="#000000" d="M1057.4655,-143.9243C1089.4959,-132.6746 1130.4528,-118.2898 1162.0079,-107.207"/>
<polygon fill="#000000" stroke="#000000" points="1163.2035,-110.4967 1171.4787,-103.8807 1160.8838,-103.8922 1163.2035,-110.4967"/>
</g>
<!-- InvalidFlag -->
<g id="node10" class="node">
<title>InvalidFlag</title>
<ellipse fill="none" stroke="#000000" cx="1006" cy="-90" rx="51.1914" ry="18"/>
<text text-anchor="middle" x="1006" y="-86.3" font-family="Times,serif" font-size="14.00" fill="#000000">InvalidFlag</text>
</g>
<!-- PacketTypeError&#45;&gt;InvalidFlag -->
<g id="edge8" class="edge">
<title>PacketTypeError&#45;&gt;InvalidFlag</title>
<path fill="none" stroke="#000000" d="M1006,-143.8314C1006,-136.131 1006,-126.9743 1006,-118.4166"/>
<polygon fill="#000000" stroke="#000000" points="1009.5001,-118.4132 1006,-108.4133 1002.5001,-118.4133 1009.5001,-118.4132"/>
</g>
<!-- FixedHeaderError -->
<g id="node11" class="node">
<title>FixedHeaderError</title>
<polygon fill="none" stroke="#000000" points="1251.5,-252 1136.5,-252 1136.5,-216 1251.5,-216 1251.5,-252"/>
<text text-anchor="middle" x="1194" y="-230.3" font-family="Times,serif" font-size="14.00" fill="#000000">FixedHeaderError</text>
</g>
<!-- FixedHeaderError&#45;&gt;IoError -->
<g id="edge9" class="edge">
<title>FixedHeaderError&#45;&gt;IoError</title>
<path fill="none" stroke="#000000" d="M1251.621,-219.096C1286.0232,-208.9031 1324.9354,-194.632 1335,-180 1365.3018,-135.947 1328.4647,-98.4556 1282,-72 1239.2247,-47.6451 908.5359,-27.3015 784.6543,-20.4617"/>
<polygon fill="#000000" stroke="#000000" points="784.5381,-16.9502 774.3617,-19.8983 784.1554,-23.9397 784.5381,-16.9502"/>
</g>
<!-- FixedHeaderError&#45;&gt;PacketTypeError -->
<g id="edge12" class="edge">
<title>FixedHeaderError&#45;&gt;PacketTypeError</title>
<path fill="none" stroke="#000000" d="M1146.5597,-215.8314C1121.0805,-206.0734 1089.4956,-193.977 1062.7243,-183.7242"/>
<polygon fill="#000000" stroke="#000000" points="1063.6896,-180.346 1053.0992,-180.038 1061.186,-186.883 1063.6896,-180.346"/>
</g>
<!-- FixedHeaderError&#45;&gt;ReservedType -->
<g id="edge11" class="edge">
<title>FixedHeaderError&#45;&gt;ReservedType</title>
<path fill="none" stroke="#000000" d="M1251.6221,-223.5559C1276.4442,-215.8916 1303.1367,-202.6843 1318,-180 1326.7689,-166.6169 1326.3863,-157.6261 1318,-144 1306.7997,-125.8017 1287.3666,-113.5141 1268.1083,-105.3235"/>
<polygon fill="#000000" stroke="#000000" points="1269.2922,-102.0283 1258.7051,-101.6239 1266.7293,-108.5422 1269.2922,-102.0283"/>
</g>
<!-- MalformedRemainingLength -->
<g id="node12" class="node">
<title>MalformedRemainingLength</title>
<ellipse fill="none" stroke="#000000" cx="1194" cy="-162" rx="115.0796" ry="18"/>
<text text-anchor="middle" x="1194" y="-158.3" font-family="Times,serif" font-size="14.00" fill="#000000">MalformedRemainingLength</text>
</g>
<!-- FixedHeaderError&#45;&gt;MalformedRemainingLength -->
<g id="edge10" class="edge">
<title>FixedHeaderError&#45;&gt;MalformedRemainingLength</title>
<path fill="none" stroke="#000000" d="M1194,-215.8314C1194,-208.131 1194,-198.9743 1194,-190.4166"/>
<polygon fill="#000000" stroke="#000000" points="1197.5001,-190.4132 1194,-180.4133 1190.5001,-190.4133 1197.5001,-190.4132"/>
</g>
<!-- SubscribePacketPayloadError -->
<g id="node13" class="node">
<title>SubscribePacketPayloadError</title>
<polygon fill="none" stroke="#000000" points="460,-252 282,-252 282,-216 460,-216 460,-252"/>
<text text-anchor="middle" x="371" y="-230.3" font-family="Times,serif" font-size="14.00" fill="#000000">SubscribePacketPayloadError</text>
</g>
<!-- SubscribePacketPayloadError&#45;&gt;TopicFilterError -->
<g id="edge16" class="edge">
<title>SubscribePacketPayloadError&#45;&gt;TopicFilterError</title>
<path fill="none" stroke="#000000" d="M319.2834,-215.9243C291.122,-206.0815 256.0938,-193.8386 226.5347,-183.5073"/>
<polygon fill="#000000" stroke="#000000" points="227.3327,-180.0786 216.7379,-180.0831 225.0231,-186.6866 227.3327,-180.0786"/>
</g>
<!-- SubscribePacketPayloadError&#45;&gt;StringEncodeError -->
<g id="edge14" class="edge">
<title>SubscribePacketPayloadError&#45;&gt;StringEncodeError</title>
<path fill="none" stroke="#000000" d="M308.7321,-215.988C291.5902,-207.8563 274.9825,-196.2886 265,-180 256.6395,-166.3581 255.9016,-157.1613 265,-144 274.1628,-130.7456 306.8108,-117.9148 338.601,-108.0883"/>
<polygon fill="#000000" stroke="#000000" points="339.8439,-111.3695 348.4124,-105.138 337.8281,-104.666 339.8439,-111.3695"/>
</g>
<!-- SubscribePacketPayloadError&#45;&gt;IoError -->
<g id="edge13" class="edge">
<title>SubscribePacketPayloadError&#45;&gt;IoError</title>
<path fill="none" stroke="#000000" d="M421.9159,-215.989C440.9503,-207.3545 461.6508,-195.465 477,-180 514.8044,-141.9103 489.3104,-105.7932 531,-72 555.682,-51.993 639.8333,-34.6085 692.9384,-25.2776"/>
<polygon fill="#000000" stroke="#000000" points="693.8597,-28.6704 703.1186,-23.5204 692.669,-21.7724 693.8597,-28.6704"/>
</g>
<!-- InvalidQualityOfService -->
<g id="node14" class="node">
<title>InvalidQualityOfService</title>
<ellipse fill="none" stroke="#000000" cx="371" cy="-162" rx="97.4827" ry="18"/>
<text text-anchor="middle" x="371" y="-158.3" font-family="Times,serif" font-size="14.00" fill="#000000">InvalidQualityOfService</text>
</g>
<!-- SubscribePacketPayloadError&#45;&gt;InvalidQualityOfService -->
<g id="edge15" class="edge">
<title>SubscribePacketPayloadError&#45;&gt;InvalidQualityOfService</title>
<path fill="none" stroke="#000000" d="M371,-215.8314C371,-208.131 371,-198.9743 371,-190.4166"/>
<polygon fill="#000000" stroke="#000000" points="374.5001,-190.4132 371,-180.4133 367.5001,-190.4133 374.5001,-190.4132"/>
</g>
<!-- SubackPacketPayloadError -->
<g id="node15" class="node">
<title>SubackPacketPayloadError</title>
<polygon fill="none" stroke="#000000" points="1597,-252 1433,-252 1433,-216 1597,-216 1597,-252"/>
<text text-anchor="middle" x="1515" y="-230.3" font-family="Times,serif" font-size="14.00" fill="#000000">SubackPacketPayloadError</text>
</g>
<!-- SubackPacketPayloadError&#45;&gt;IoError -->
<g id="edge17" class="edge">
<title>SubackPacketPayloadError&#45;&gt;IoError</title>
<path fill="none" stroke="#000000" d="M1590.5942,-215.8632C1608.4429,-207.8673 1625.3577,-196.4035 1636,-180 1644.7083,-166.5774 1645.9825,-156.504 1636,-144 1582.1005,-76.4856 960.4319,-32.1154 784.2666,-20.836"/>
<polygon fill="#000000" stroke="#000000" points="784.4789,-17.3426 774.2771,-20.2015 784.0351,-24.3285 784.4789,-17.3426"/>
</g>
<!-- InvalidSubscribeReturnCode -->
<g id="node16" class="node">
<title>InvalidSubscribeReturnCode</title>
<ellipse fill="none" stroke="#000000" cx="1515" cy="-162" rx="112.3801" ry="18"/>
<text text-anchor="middle" x="1515" y="-158.3" font-family="Times,serif" font-size="14.00" fill="#000000">InvalidSubscribeReturnCode</text>
</g>
<!-- SubackPacketPayloadError&#45;&gt;InvalidSubscribeReturnCode -->
<g id="edge18" class="edge">
<title>SubackPacketPayloadError&#45;&gt;InvalidSubscribeReturnCode</title>
<path fill="none" stroke="#000000" d="M1515,-215.8314C1515,-208.131 1515,-198.9743 1515,-190.4166"/>
<polygon fill="#000000" stroke="#000000" points="1518.5001,-190.4132 1515,-180.4133 1511.5001,-190.4133 1518.5001,-190.4132"/>
</g>
<!-- UnsubscribePacketPayloadError -->
<g id="node17" class="node">
<title>UnsubscribePacketPayloadError</title>
<polygon fill="none" stroke="#000000" points="192,-252 0,-252 0,-216 192,-216 192,-252"/>
<text text-anchor="middle" x="96" y="-230.3" font-family="Times,serif" font-size="14.00" fill="#000000">UnsubscribePacketPayloadError</text>
</g>
<!-- UnsubscribePacketPayloadError&#45;&gt;TopicFilterError -->
<g id="edge21" class="edge">
<title>UnsubscribePacketPayloadError&#45;&gt;TopicFilterError</title>
<path fill="none" stroke="#000000" d="M113.4116,-215.8314C121.521,-207.3694 131.3156,-197.1489 140.182,-187.8971"/>
<polygon fill="#000000" stroke="#000000" points="142.9618,-190.0549 147.354,-180.4133 137.9079,-185.2115 142.9618,-190.0549"/>
</g>
<!-- UnsubscribePacketPayloadError&#45;&gt;StringEncodeError -->
<g id="edge20" class="edge">
<title>UnsubscribePacketPayloadError&#45;&gt;StringEncodeError</title>
<path fill="none" stroke="#000000" d="M91.5748,-215.9598C87.7962,-195.7802 85.4181,-163.3876 103,-144 118.6643,-126.7269 253.1141,-108.0711 338.1958,-97.8356"/>
<polygon fill="#000000" stroke="#000000" points="338.7999,-101.2885 348.3156,-96.6298 337.9716,-94.3376 338.7999,-101.2885"/>
</g>
<!-- UnsubscribePacketPayloadError&#45;&gt;IoError -->
<g id="edge19" class="edge">
<title>UnsubscribePacketPayloadError&#45;&gt;IoError</title>
<path fill="none" stroke="#000000" d="M86.6441,-215.9069C70.9268,-182.6979 44.3528,-111.7829 81,-72 86.1882,-66.3678 542.2817,-32.3828 691.4018,-21.4119"/>
<polygon fill="#000000" stroke="#000000" points="691.881,-24.8862 701.5975,-20.6624 691.3678,-17.905 691.881,-24.8862"/>
</g>
<!-- PacketError -->
<g id="node18" class="node">
<title>PacketError</title>
<polygon fill="none" stroke="#000000" points="651.5,-324 570.5,-324 570.5,-288 651.5,-288 651.5,-324"/>
<text text-anchor="middle" x="611" y="-302.3" font-family="Times,serif" font-size="14.00" fill="#000000">PacketError</text>
</g>
<!-- PacketError&#45;&gt;TopicFilterError -->
<g id="edge30" class="edge">
<title>PacketError&#45;&gt;TopicFilterError</title>
<path fill="none" stroke="#000000" d="M570.3609,-302.2289C492.5248,-294.5635 325.4764,-275.85 273,-252 239.5557,-236.7999 208.1045,-208.3618 187.8639,-187.5068"/>
<polygon fill="#000000" stroke="#000000" points="190.3548,-185.0471 180.9311,-180.205 185.2784,-189.8669 190.3548,-185.0471"/>
</g>
<!-- PacketError&#45;&gt;StringEncodeError -->
<g id="edge28" class="edge">
<title>PacketError&#45;&gt;StringEncodeError</title>
<path fill="none" stroke="#000000" d="M598.0674,-287.9125C575.3901,-256.7937 526.1727,-191.8608 477,-144 466.2109,-133.4988 453.4504,-123.0457 441.8556,-114.1733"/>
<polygon fill="#000000" stroke="#000000" points="443.7599,-111.2262 433.6637,-108.0141 439.5532,-116.8212 443.7599,-111.2262"/>
</g>
<!-- PacketError&#45;&gt;TopicNameError -->
<g id="edge29" class="edge">
<title>PacketError&#45;&gt;TopicNameError</title>
<path fill="none" stroke="#000000" d="M611.7599,-287.7623C612.7833,-263.201 614.6147,-219.2474 615.8186,-190.3541"/>
<polygon fill="#000000" stroke="#000000" points="619.3268,-190.2267 616.2463,-180.0896 612.3329,-189.9352 619.3268,-190.2267"/>
</g>
<!-- PacketError&#45;&gt;IoError -->
<g id="edge22" class="edge">
<title>PacketError&#45;&gt;IoError</title>
<path fill="none" stroke="#000000" d="M651.7872,-304.8145C833.7142,-299.396 1564.0442,-276.2089 1606,-252 1639.0996,-232.9012 1642.1032,-216.6279 1653,-180 1681.1393,-85.4143 1555.4092,-93.0601 1459,-72 1329.621,-43.7378 923.7029,-25.3795 785.0038,-19.799"/>
<polygon fill="#000000" stroke="#000000" points="784.8488,-16.2902 774.7173,-19.3889 784.5699,-23.2846 784.8488,-16.2902"/>
</g>
<!-- PacketError&#45;&gt;FixedHeaderError -->
<g id="edge23" class="edge">
<title>PacketError&#45;&gt;FixedHeaderError</title>
<path fill="none" stroke="#000000" d="M651.5326,-300.9943C750.2402,-288.804 1003.9289,-257.4736 1126.1649,-242.3776"/>
<polygon fill="#000000" stroke="#000000" points="1126.6603,-245.8431 1136.1559,-241.1437 1125.8023,-238.8959 1126.6603,-245.8431"/>
</g>
<!-- PacketError&#45;&gt;SubscribePacketPayloadError -->
<g id="edge26" class="edge">
<title>PacketError&#45;&gt;SubscribePacketPayloadError</title>
<path fill="none" stroke="#000000" d="M570.2873,-293.7862C534.9268,-283.178 482.9409,-267.5823 440.9309,-254.9793"/>
<polygon fill="#000000" stroke="#000000" points="441.892,-251.6136 431.308,-252.0924 439.8805,-258.3183 441.892,-251.6136"/>
</g>
<!-- PacketError&#45;&gt;SubackPacketPayloadError -->
<g id="edge25" class="edge">
<title>PacketError&#45;&gt;SubackPacketPayloadError</title>
<path fill="none" stroke="#000000" d="M651.5992,-302.7664C787.5358,-291.9396 1229.0023,-256.7786 1422.5927,-241.3599"/>
<polygon fill="#000000" stroke="#000000" points="1423.0525,-244.8344 1432.743,-240.5514 1422.4967,-237.8565 1423.0525,-244.8344"/>
</g>
<!-- PacketError&#45;&gt;UnsubscribePacketPayloadError -->
<g id="edge27" class="edge">
<title>PacketError&#45;&gt;UnsubscribePacketPayloadError</title>
<path fill="none" stroke="#000000" d="M570.1583,-300.2901C491.4088,-289.2804 316.3005,-264.7993 202.3407,-248.8671"/>
<polygon fill="#000000" stroke="#000000" points="202.5822,-245.3669 192.1939,-247.4485 201.6129,-252.2994 202.5822,-245.3669"/>
</g>
<!-- VariableHeaderError -->
<g id="node19" class="node">
<title>VariableHeaderError</title>
<polygon fill="none" stroke="#000000" points="770.5,-252 639.5,-252 639.5,-216 770.5,-216 770.5,-252"/>
<text text-anchor="middle" x="705" y="-230.3" font-family="Times,serif" font-size="14.00" fill="#000000">VariableHeaderError</text>
</g>
<!-- PacketError&#45;&gt;VariableHeaderError -->
<g id="edge24" class="edge">
<title>PacketError&#45;&gt;VariableHeaderError</title>
<path fill="none" stroke="#000000" d="M634.7202,-287.8314C646.4094,-278.8779 660.6688,-267.9558 673.2809,-258.2955"/>
<polygon fill="#000000" stroke="#000000" points="675.4769,-261.0222 681.2874,-252.1628 671.2203,-255.4651 675.4769,-261.0222"/>
</g>
<!-- VariableHeaderError&#45;&gt;StringEncodeError -->
<g id="edge32" class="edge">
<title>VariableHeaderError&#45;&gt;StringEncodeError</title>
<path fill="none" stroke="#000000" d="M705.4705,-215.991C704.9672,-195.5285 700.8272,-162.5726 681,-144 666.2152,-130.1508 553.6238,-111.27 477.7288,-99.8951"/>
<polygon fill="#000000" stroke="#000000" points="478.1464,-96.4187 467.7403,-98.4094 477.1166,-103.3426 478.1464,-96.4187"/>
</g>
<!-- VariableHeaderError&#45;&gt;TopicNameError -->
<g id="edge34" class="edge">
<title>VariableHeaderError&#45;&gt;TopicNameError</title>
<path fill="none" stroke="#000000" d="M682.7939,-215.8314C671.955,-206.9632 658.7556,-196.1637 647.0322,-186.5718"/>
<polygon fill="#000000" stroke="#000000" points="649.155,-183.7864 639.199,-180.1628 644.7223,-189.2041 649.155,-183.7864"/>
</g>
<!-- VariableHeaderError&#45;&gt;IoError -->
<g id="edge31" class="edge">
<title>VariableHeaderError&#45;&gt;IoError</title>
<path fill="none" stroke="#000000" d="M707.7568,-215.9555C713.5075,-178.3144 726.8187,-91.1867 733.7032,-46.1246"/>
<polygon fill="#000000" stroke="#000000" points="737.1774,-46.559 735.2278,-36.1451 730.2576,-45.5017 737.1774,-46.559"/>
</g>
<!-- InvalidReservedFlag -->
<g id="node20" class="node">
<title>InvalidReservedFlag</title>
<ellipse fill="none" stroke="#000000" cx="850" cy="-162" rx="83.6854" ry="18"/>
<text text-anchor="middle" x="850" y="-158.3" font-family="Times,serif" font-size="14.00" fill="#000000">InvalidReservedFlag</text>
</g>
<!-- VariableHeaderError&#45;&gt;InvalidReservedFlag -->
<g id="edge33" class="edge">
<title>VariableHeaderError&#45;&gt;InvalidReservedFlag</title>
<path fill="none" stroke="#000000" d="M741.5896,-215.8314C761.614,-205.8882 786.5281,-193.5171 807.4214,-183.1425"/>
<polygon fill="#000000" stroke="#000000" points="809.0039,-186.2645 816.4038,-178.6822 805.8906,-179.9949 809.0039,-186.2645"/>
</g>
</g>
</svg>
